<svg id="visual" viewBox="0 0 900 600" width="900" height="600" xmlns="http://www.w3.org/2000/svg" xmlns:xlink="http://www.w3.org/1999/xlink" version="1.1"><rect x="0" y="0" width="900" height="600" fill="#002233"></rect><path d="M0 487L25 481.2C50 475.3 100 463.7 150 460.2C200 456.7 250 461.3 300 470.8C350 480.3 400 494.7 450 489.2C500 483.7 550 458.3 600 446.2C650 434 700 435 750 439.2C800 443.3 850 450.7 875 454.3L900 458L900 601L875 601C850 601 800 601 750 601C700 601 650 601 600 601C550 601 500 601 450 601C400 601 350 601 300 601C250 601 200 601 150 601C100 601 50 601 25 601L0 601Z" fill="#0066FF" stroke-linecap="round" stroke-linejoin="miter"></path></svg>